<?xml version="1.0" standalone="no"?>
<!DOCTYPE svg PUBLIC "-//W3C//DTD SVG 20010904//EN"
 "http://www.w3.org/TR/2001/REC-SVG-20010904/DTD/svg10.dtd">
<svg version="1.0" xmlns="http://www.w3.org/2000/svg"
 width="1718.000000pt" height="1200.000000pt" viewBox="0 0 1718.000000 1200.000000"
 preserveAspectRatio="xMidYMid meet">

<g transform="translate(0.000000,1200.000000) scale(0.100000,-0.100000)"
fill="#000000" stroke="none">
<path d="M0 8165 l0 -3835 745 0 745 0 0 1595 0 1595 469 0 c496 0 691 9 911
40 74 11 141 20 148 20 9 0 12 -335 12 -1639 l0 -1640 381 -978 c210 -538 384
-986 386 -995 5 -17 -54 -18 -1136 -18 l-1141 0 0 -640 0 -640 1393 0 1392 -1
201 -512 200 -512 798 -3 c638 -2 797 0 793 10 -3 7 -735 1709 -1627 3783
-892 2074 -1624 3775 -1626 3780 -3 6 48 22 118 38 266 61 600 192 798 314
576 355 916 905 991 1600 17 161 6 544 -19 688 -39 220 -100 410 -187 590
-282 579 -840 975 -1585 1125 -329 66 -248 63 -1772 67 l-1388 4 0 -3836z
m2715 2488 c331 -76 559 -237 675 -477 64 -133 84 -226 83 -386 -2 -461 -271
-799 -727 -915 -148 -37 -279 -45 -783 -45 l-473 0 0 926 0 925 568 -4 c529
-3 573 -5 657 -24z"/>
<path d="M16702 2795 c-28 -58 -52 -107 -52 -110 0 -3 47 -5 103 -5 l104 0 64
102 c35 56 66 106 67 110 2 4 -50 8 -115 8 l-118 0 -53 -105z"/>
<path d="M12160 2599 c-78 -13 -173 -62 -214 -111 -78 -90 -89 -239 -25 -332
48 -70 115 -102 297 -141 130 -29 169 -46 178 -79 15 -62 -34 -99 -131 -100
-82 0 -142 32 -170 91 l-20 42 -117 1 c-65 0 -118 -4 -118 -9 0 -5 9 -38 20
-74 50 -161 193 -249 405 -249 198 -1 337 83 376 226 25 92 -9 211 -73 259
-57 42 -94 57 -240 92 -157 38 -191 56 -196 103 -4 42 10 66 52 86 82 39 175
10 215 -68 l24 -46 108 0 c59 0 110 4 113 8 10 17 -17 105 -47 149 -18 26 -51
62 -75 80 -79 60 -243 93 -362 72z"/>
<path d="M8340 2120 l0 -470 115 0 115 0 0 120 0 120 98 0 c212 0 337 61 404
197 29 59 33 77 33 148 0 147 -58 246 -178 305 -82 39 -161 50 -394 50 l-193
0 0 -470z m467 237 c89 -47 83 -196 -10 -240 -25 -12 -62 -17 -131 -17 l-96 0
0 141 0 141 103 -4 c71 -3 112 -9 134 -21z"/>
<path d="M9200 2120 l0 -470 115 0 115 0 0 135 0 135 88 0 88 0 90 -132 89
-133 133 -3 c72 -1 132 1 132 6 0 5 -47 78 -105 162 l-104 154 48 46 c69 64
93 117 99 216 8 145 -47 243 -171 303 -85 42 -158 51 -404 51 l-213 0 0 -470z
m501 232 c85 -52 75 -153 -21 -203 -14 -7 -73 -15 -137 -17 l-113 -5 0 128 0
127 118 -3 c100 -4 122 -7 153 -27z"/>
<path d="M10147 2583 c-4 -3 -7 -51 -7 -105 l0 -98 220 0 220 0 -231 -310
-230 -309 3 -53 3 -53 400 0 400 0 3 103 3 102 -225 0 -224 0 219 306 219 307
0 58 0 59 -383 0 c-211 0 -387 -3 -390 -7z"/>
<path d="M11055 2578 c-3 -7 -4 -218 -3 -468 l3 -455 353 -3 352 -2 0 105 0
105 -235 0 -235 0 0 75 0 75 205 0 205 0 0 105 0 105 -205 0 -205 0 0 80 0 80
235 0 235 0 0 105 0 105 -350 0 c-271 0 -352 -3 -355 -12z"/>
<path d="M12707 2583 c-4 -3 -7 -51 -7 -105 l0 -98 150 0 150 0 2 -362 3 -363
115 0 115 0 3 363 2 362 145 0 145 0 0 105 0 105 -408 0 c-225 0 -412 -3 -415
-7z"/>
<path d="M13635 2578 c-3 -7 -4 -218 -3 -468 l3 -455 115 0 115 0 3 133 3 132
84 0 84 0 88 -132 88 -133 134 -3 c114 -2 133 0 128 12 -3 8 -51 82 -106 164
l-99 149 43 37 c65 53 108 147 108 234 1 179 -110 300 -303 331 -96 16 -479
14 -485 -1z m492 -221 c67 -36 82 -115 33 -171 -37 -41 -92 -56 -210 -56 l-80
0 0 126 0 126 113 -4 c81 -3 121 -9 144 -21z"/>
<path d="M14580 2485 l0 -105 214 -2 215 -3 -230 -305 -229 -305 2 -55 3 -55
403 -3 402 -2 0 105 0 105 -220 0 c-121 0 -220 2 -220 5 0 3 97 140 215 305
l215 300 0 60 0 60 -385 0 -385 0 0 -105z"/>
<path d="M15490 2120 l0 -470 350 0 350 0 0 105 0 105 -235 0 -235 0 0 75 0
75 205 0 205 0 0 105 0 105 -205 0 -205 0 0 80 0 80 235 0 235 0 0 105 0 105
-350 0 -350 0 0 -470z"/>
<path d="M16320 2120 l0 -470 115 0 115 0 2 254 3 255 223 -255 223 -255 87 3
87 3 0 465 0 465 -115 0 -115 0 -5 -255 -5 -255 -220 258 -220 257 -87 0 -88
0 0 -470z"/>
<path d="M8666 932 c-4 -7 -292 -687 -382 -900 l-13 -33 126 3 126 3 29 78 30
77 195 -2 196 -3 30 -78 30 -77 124 0 c67 0 123 2 123 4 0 3 -86 208 -191 458
-105 249 -193 459 -196 466 -6 14 -218 18 -227 4z m173 -431 c28 -74 50 -136
48 -138 -3 -2 -54 -2 -115 -1 l-110 3 56 143 c30 79 58 139 62 135 4 -4 31
-68 59 -142z"/>
<path d="M9380 465 l0 -465 115 0 115 0 2 251 3 251 219 -251 219 -251 94 0
93 0 0 465 0 465 -120 0 -120 0 -2 -256 -3 -255 -219 255 -219 256 -88 0 -89
0 0 -465z"/>
<path d="M10400 465 l0 -465 115 0 115 0 2 249 3 250 218 -250 218 -249 90 0
89 0 0 465 0 465 -115 0 -115 0 -2 -257 -3 -257 -220 257 -220 257 -87 0 -88
0 0 -465z"/>
<path d="M11343 923 c2 -5 86 -152 186 -329 l181 -321 0 -136 0 -137 115 0
115 0 0 137 0 137 166 295 c92 163 175 311 186 329 l20 33 -133 -3 -132 -3
-99 -175 c-55 -96 -105 -186 -112 -199 -12 -22 -19 -13 -125 178 l-112 201
-130 0 c-72 0 -128 -3 -126 -7z"/>
</g>
</svg>
