<?xml version="1.0" standalone="no"?>
<!DOCTYPE svg PUBLIC "-//W3C//DTD SVG 20010904//EN"
 "http://www.w3.org/TR/2001/REC-SVG-20010904/DTD/svg10.dtd">
<svg version="1.0" xmlns="http://www.w3.org/2000/svg"
 width="1200.000000pt" height="1200.000000pt" viewBox="0 0 1200.000000 1200.000000"
 preserveAspectRatio="xMidYMid meet">

<g transform="translate(0.000000,1200.000000) scale(0.100000,-0.100000)"
fill="#000000" stroke="none">
<path d="M5590 11989 c-1233 -86 -2402 -546 -3365 -1323 -300 -242 -650 -592
-891 -891 -784 -973 -1237 -2132 -1324 -3385 -13 -186 -13 -594 0 -780 109
-1584 809 -3022 1985 -4078 926 -832 2098 -1359 3330 -1496 435 -49 915 -49
1345 -1 1775 199 3366 1178 4353 2680 513 781 837 1682 942 2615 48 428 48
912 0 1340 -199 1775 -1178 3366 -2680 4353 -860 565 -1847 894 -2895 967
-167 11 -631 11 -800 -1z m451 -1620 c854 -68 1427 -502 1583 -1200 69 -308
52 -669 -45 -964 -70 -213 -217 -446 -377 -596 -217 -204 -506 -353 -835 -430
-77 -18 -97 -27 -94 -39 3 -8 536 -1251 1186 -2762 649 -1510 1181 -2749 1181
-2752 0 -3 -262 -5 -582 -4 l-581 3 -146 372 -146 373 -1017 0 -1018 0 0 470
0 470 833 2 833 3 -280 715 -280 715 3 1203 c3 1169 3 1202 -15 1202 -11 -1
-62 -8 -114 -16 -71 -12 -208 -17 -542 -21 l-448 -5 0 -1164 0 -1164 -550 0
-550 0 0 2800 0 2800 933 0 c571 0 985 -4 1068 -11z"/>
<path d="M5140 8740 l0 -670 384 0 c307 0 400 3 467 16 232 43 425 178 513
357 46 96 66 172 72 287 11 187 -45 342 -169 464 -79 79 -144 120 -254 159
-142 52 -202 57 -624 57 l-389 0 0 -670z"/>
</g>
</svg>
