<?xml version="1.0" standalone="no"?>
<!DOCTYPE svg PUBLIC "-//W3C//DTD SVG 20010904//EN"
 "http://www.w3.org/TR/2001/REC-SVG-20010904/DTD/svg10.dtd">
<svg version="1.0" xmlns="http://www.w3.org/2000/svg"
 width="630.000000pt" height="1200.000000pt" viewBox="0 0 630.000000 1200.000000"
 preserveAspectRatio="xMidYMid meet">

<g transform="translate(0.000000,1200.000000) scale(0.100000,-0.100000)"
fill="#000000" stroke="none">
<path d="M0 8160 l0 -3840 745 0 745 0 0 1600 0 1600 476 0 c497 0 679 8 904
40 74 11 141 20 148 20 9 0 12 -334 12 -1639 l0 -1639 381 -979 c210 -538 384
-986 386 -995 5 -17 -54 -18 -1136 -18 l-1141 0 0 -640 0 -640 1393 0 1392 0
201 -513 200 -512 798 -3 c637 -2 797 0 793 10 -3 7 -735 1709 -1627 3783
-892 2074 -1624 3775 -1626 3780 -2 6 58 25 138 44 534 126 973 375 1273 723
175 203 304 430 388 683 85 257 117 470 117 777 0 342 -47 599 -161 881 -260
644 -841 1087 -1639 1247 -329 66 -248 63 -1772 67 l-1388 4 0 -3841z m2715
2493 c244 -56 411 -146 552 -297 197 -211 260 -532 167 -852 -109 -376 -432
-617 -888 -663 -63 -6 -312 -11 -583 -11 l-473 0 0 926 0 925 568 -4 c529 -3
573 -5 657 -24z"/>
</g>
</svg>
